<svg width="20" height="20" viewBox="0 0 20 20" fill="none" xmlns="http://www.w3.org/2000/svg">
<path d="M0 10.001C0.000199111 11.9788 0.586858 13.9121 1.68579 15.5564C2.78473 17.2008 4.34659 18.4824 6.17386 19.2391C8.00114 19.9958 10.0118 20.1937 11.9515 19.8077C13.8913 19.4218 15.673 18.4693 17.0714 17.0707C18.4699 15.6721 19.4222 13.8903 19.8079 11.9505C20.1937 10.0107 19.9956 8.00013 19.2387 6.17293C18.4818 4.34572 17.2001 2.784 15.5556 1.68523C13.9111 0.586456 11.9778 -7.68086e-06 10 -7.68086e-06C7.34856 0.00292449 4.80657 1.05757 2.93181 2.93252C1.05706 4.80746 0.00266475 7.34956 0 10.001ZM18.9933 10.001C18.9931 11.7797 18.4654 13.5183 17.4771 14.9971C16.4888 16.4759 15.0842 17.6284 13.4409 18.309C11.7976 18.9895 9.98934 19.1674 8.24489 18.8203C6.50043 18.4732 4.89808 17.6166 3.64045 16.3588C2.38282 15.1011 1.5264 13.4986 1.17947 11.7541C0.83255 10.0096 1.0107 8.20144 1.69141 6.55819C2.37212 4.91495 3.52481 3.51045 5.00372 2.52231C6.48263 1.53416 8.22135 1.00674 10 1.00674C12.3845 1.0094 14.6706 1.9579 16.3566 3.6441C18.0426 5.3303 18.9909 7.61648 18.9933 10.001Z" fill="#D3D0CB"/>
</svg>
