<svg width="7" height="4" viewBox="0 0 7 4" fill="none" xmlns="http://www.w3.org/2000/svg">
<path d="M3.14915 3.85085C3.19503 3.89729 3.24966 3.93415 3.30989 3.95931C3.37011 3.98447 3.43474 3.99743 3.50001 3.99743C3.56528 3.99743 3.6299 3.98447 3.69013 3.95931C3.75036 3.93415 3.80499 3.89729 3.85087 3.85085L6.85821 0.843511C6.94971 0.750138 7.00067 0.624426 7.00001 0.493692C6.99935 0.362959 6.94713 0.237768 6.85468 0.145324C6.76224 0.0528799 6.63705 0.000653671 6.50631 -6.69206e-06C6.37558 -0.000667055 6.24987 0.0502918 6.15649 0.141797L3.50001 2.78826L0.843524 0.141797C0.750151 0.0502918 0.624439 -0.000667055 0.493705 -6.69206e-06C0.362972 0.000653671 0.237781 0.0528799 0.145337 0.145324C0.052893 0.237768 0.000666625 0.362959 6.33747e-06 0.493692C-0.00065395 0.624426 0.0503048 0.750138 0.14181 0.843511L3.14915 3.85085Z" fill="#D3D0CB"/>
</svg>
