<svg width="13" height="13" viewBox="0 0 13 13" fill="none" xmlns="http://www.w3.org/2000/svg">
<path d="M13 6.49934C12.9999 5.21379 12.6185 3.95715 11.9042 2.88832C11.1899 1.81949 10.1747 0.986467 8.98699 0.494598C7.79926 0.00272894 6.49235 -0.125899 5.23152 0.124978C3.97069 0.375856 2.81256 0.994972 1.90358 1.90404C0.994607 2.81311 0.375608 3.97129 0.124857 5.23215C-0.125893 6.49301 0.00286672 7.79991 0.494855 8.98759C0.986844 10.1753 1.81996 11.1904 2.88887 11.9046C3.95777 12.6188 5.21446 13 6.5 13C8.22344 12.9981 9.87573 12.3126 11.0943 11.0939C12.3129 9.87514 12.9983 8.22278 13 6.49934ZM0.654394 6.49934C0.654523 5.34322 0.997472 4.21309 1.63987 3.25187C2.28228 2.29065 3.19528 1.54151 4.26344 1.09917C5.3316 0.656829 6.50693 0.54116 7.64083 0.766788C8.77472 0.992416 9.81625 1.54921 10.6337 2.36676C11.4512 3.18431 12.0078 4.2259 12.2333 5.35982C12.4588 6.49374 12.343 7.66906 11.9006 8.73717C11.4581 9.80528 10.7089 10.7182 9.74758 11.3605C8.78629 12.0028 7.65613 12.3456 6.5 12.3456C4.95007 12.3439 3.46412 11.7274 2.36822 10.6313C1.27231 9.53529 0.655953 8.04928 0.654394 6.49934Z" fill="#D3D0CB"/>
</svg>
