<svg width="7" height="4" viewBox="0 0 7 4" fill="none" xmlns="http://www.w3.org/2000/svg">
<path d="M3.14915 0.146577C3.19503 0.100144 3.24966 0.0632782 3.30989 0.038117C3.37011 0.0129558 3.43474 0 3.50001 0C3.56528 0 3.6299 0.0129558 3.69013 0.038117C3.75036 0.0632782 3.80499 0.100144 3.85087 0.146577L6.85821 3.15392C6.94971 3.24729 7.00067 3.373 7.00001 3.50374C6.99935 3.63447 6.94713 3.75966 6.85468 3.85211C6.76224 3.94455 6.63705 3.99678 6.50631 3.99744C6.37558 3.9981 6.24987 3.94714 6.15649 3.85563L3.50001 1.20917L0.843524 3.85563C0.750151 3.94714 0.624439 3.9981 0.493705 3.99744C0.362972 3.99678 0.237781 3.94455 0.145337 3.85211C0.052893 3.75966 0.000666625 3.63447 6.33747e-06 3.50374C-0.00065395 3.373 0.0503048 3.24729 0.14181 3.15392L3.14915 0.146577Z" fill="#D3D0CB"/>
</svg>
