<svg width="21" height="21" viewBox="0 0 21 21" fill="none" xmlns="http://www.w3.org/2000/svg">
<path d="M17.9227 3.07732C15.9804 1.05105 13.2927 -0.0408275 10.5 0.00116781C7.70731 -0.0408275 5.03011 1.05105 3.08782 3.07732C1.05105 5.01961 -0.0408275 7.70731 0.00116781 10.5C-0.0408275 13.2927 1.05105 15.9699 3.07732 17.9122C5.01961 19.9489 7.70731 21.0408 10.5 20.9988C13.2927 21.0408 15.9699 19.9489 17.9122 17.9227C19.9489 15.9804 21.0408 13.2927 20.9988 10.5C21.0408 7.70731 19.9489 5.01961 17.9227 3.07732ZM15.7494 10.5V16.7993H12.0748V11.5499H8.92517V16.7993H5.25058V10.5H3.15082L10.5 3.15082L18.3741 10.5H15.7494Z" fill="#D3D0CB"/>
</svg>
