<svg width="25" height="25" viewBox="0 0 25 25" fill="none" xmlns="http://www.w3.org/2000/svg">
<path d="M13.6842 14.6711C12.8026 15.7237 12.1842 17.0132 11.9474 18.4211H5.92105V17.4342C5.92105 15.4605 9.86842 14.4737 11.8421 14.4737C12.3553 14.4737 13 14.5395 13.6842 14.6711ZM21.0526 2.63158V11.9474C22 12.1053 22.8816 12.4342 23.6842 12.8947V2.63158C23.6842 1.93364 23.407 1.26429 22.9134 0.770772C22.4199 0.277255 21.7506 0 21.0526 0H2.63158C1.93421 0 1.26316 0.276316 0.776316 0.776316C0.276316 1.26316 0 1.93421 0 2.63158V21.0526C0 21.75 0.276316 22.4211 0.776316 22.9079C1.26316 23.4079 1.93421 23.6842 2.63158 23.6842H12.8947C12.4342 22.8816 12.1053 22 11.9474 21.0526H2.63158V2.63158H21.0526ZM11.8421 12.1711C12.6316 12.1711 13.3816 11.8421 13.9342 11.3026C14.4737 10.75 14.8026 10 14.8026 9.21053C14.8026 8.42105 14.4737 7.67105 13.9342 7.11842C13.3763 6.56786 12.6259 6.25635 11.8421 6.25C11.0526 6.25 10.3026 6.57895 9.75 7.11842C9.21053 7.67105 8.88158 8.42105 8.88158 9.21053C8.88158 10 9.21053 10.75 9.75 11.3026C10.3026 11.8421 11.0526 12.1711 11.8421 12.1711ZM18.4211 14.4737H21.0526V18.4211H25V21.0526H21.0526V25H18.4211V21.0526H14.4737V18.4211H18.4211V14.4737Z" fill="#D3D0CB"/>
</svg>
